<svg version="1.1" xmlns="http://www.w3.org/2000/svg" xmlns:xlink="http://www.w3.org/1999/xlink" style="" xml:space="preserve" width="1528" height="498"><rect id="backgroundrect" width="100%" height="100%" x="0" y="0" fill="none" stroke="none" style="" class=""/>
<style type="text/css">
	.st0{fill:#FF4500;}
	.st1{fill:#FFFFFF;}
</style>


<g class="currentLayer" style=""><title>Layer 1</title><g id="svg_4" class="">
	<circle class="st0" cx="1232.800048828125" cy="104.10000610351562" r="54.79998779296875" id="svg_5"/>
	<path d="M456.199951171875,337.29998779296875 c21.200000762939453,1.5 39.599998474121094,-14.5 41.20000076293945,-35.79999923706055 c0.10000000149011612,-1.2000000476837158 0.10000000149011612,-2.5999999046325684 0.10000000149011612,-3.9000000953674316 c-0.30000001192092896,-7.400000095367432 -1.2000000476837158,-14.899999618530273 -2.700000047683716,-22.200000762939453 c-13,-69.4000015258789 -72.30000305175781,-120.5 -142.8000030517578,-123.30000305175781 c-80.30000305175781,0 -147.39999389648438,73.80000305175781 -147.39999389648438,164.39999389648438 s66,164.5 147.3000030517578,164.5 c43.099998474121094,1.7000000476837158 84.9000015258789,-15.699999809265137 113.9000015258789,-47.599998474121094 c11.899999618530273,-13 10.899999618530273,-33.099998474121094 -2.0999999046325684,-45 c-1,-0.8999999761581421 -1.899999976158142,-1.7000000476837158 -2.9000000953674316,-2.4000000953674316 c-13,-8.100000381469727 -29.899999618530273,-6.400000095367432 -40.900001525878906,4.199999809265137 c-18.100000381469727,18 -42.400001525878906,28.299999237060547 -68,29.100000381469727 c-44.20000076293945,-3.5 -79.5999984741211,-38.099998474121094 -84,-82.4000015258789 H455 L456.199951171875,337.29998779296875 zM351.5999755859375,214 c38.900001525878906,2.5999999046325684 71.5999984741211,30.399999618530273 80.30000305175781,68.5 h-160.39999389648438 C280.0999755859375,244.29998779296875 312.5999755859375,216.5 351.5999755859375,214 z" id="svg_6"/>
	<path d="M207.800048828125,184 c0,-15.399999618530273 -11.399999618530273,-28.5 -26.700000762939453,-30.399999618530273 c-41.29999923706055,-6.900000095367432 -83.30000305175781,8.399999618530273 -110.4000015258789,40.400001525878906 v-4 c0,-17.100000381469727 -13.800000190734863,-30.899999618530273 -30.899999618530273,-30.899999618530273 c-17.100000381469727,0 -30.899999618530273,13.800000190734863 -30.899999618530273,30.899999618530273 v253 c-0.4000000059604645,16.600000381469727 12.300000190734863,30.700000762939453 28.899999618530273,32.099998474121094 c16.899999618530273,1.2000000476837158 31.700000762939453,-11.600000381469727 32.79999923706055,-28.5 c0.10000000149011612,-1.2000000476837158 0.10000000149011612,-2.4000000953674316 0,-3.5999999046325684 V313.20001220703125 c-2.700000047683716,-51.79999923706055 37,-95.9000015258789 88.80000305175781,-98.69999694824219 c4.599999904632568,-0.30000001192092896 9.300000190734863,-0.20000000298023224 13.899999618530273,0.30000001192092896 h6.199999809265137 C195.5,213.39999389648438 207.800048828125,200.10000610351562 207.800048828125,184 z" id="svg_7"/>
	<path d="M1263.60009765625,217.20001220703125 c0,-17.100000381469727 -13.800000190734863,-30.899999618530273 -30.899999618530273,-30.899999618530273 c-17.100000381469727,0 -30.899999618530273,13.800000190734863 -30.899999618530273,30.899999618530273 l0,0 v225.6999969482422 c0,17.100000381469727 13.800000190734863,30.899999618530273 30.899999618530273,30.899999618530273 c17.100000381469727,0 30.899999618530273,-13.800000190734863 30.899999618530273,-30.899999618530273 V217.20001220703125 z" id="svg_8"/>
	<path d="M807.5999755859375,45.69999694824219 c0,-17 -13.800000190734863,-30.799999237060547 -30.799999237060547,-30.799999237060547 l0,0 l0,0 c-17,0 -30.799999237060547,13.800000190734863 -30.799999237060547,30.799999237060547 v138 c-20.799999237060547,-21 -49.400001525878906,-32.400001525878906 -78.9000015258789,-31.600000381469727 c-80.30000305175781,0 -147.39999389648438,73.80000305175781 -147.39999389648438,164.39999389648438 s66.0999984741211,164.5 147.39999389648438,164.5 c30,0.8999999761581421 59,-10.600000381469727 80.30000305175781,-31.899999618530273 c4.800000190734863,16.299999237060547 21.899999618530273,25.600000381469727 38.20000076293945,20.799999237060547 c12.300000190734863,-3.5999999046325684 21.100000381469727,-14.399999618530273 21.899999618530273,-27.299999237060547 L807.5999755859375,45.69999694824219 L807.5999755859375,45.69999694824219 zM666.9000244140625,420.0999755859375 c-47.29999923706055,0 -85.80000305175781,-46 -85.80000305175781,-102.9000015258789 s38.20000076293945,-102.9000015258789 85.80000305175781,-102.9000015258789 c47.599998474121094,0 85.80000305175781,46 85.80000305175781,102.9000015258789 s-38.20000076293945,102.4000015258789 -85.5999984741211,102.4000015258789 L666.9000244140625,420.0999755859375 z" id="svg_9"/>
	<path d="M1129.800048828125,45.69999694824219 c0,-17 -13.800000190734863,-30.799999237060547 -30.799999237060547,-30.799999237060547 l0,0 c-17,0 -30.799999237060547,13.800000190734863 -30.799999237060547,30.799999237060547 l0,0 v138 c-20.799999237060547,-21 -49.400001525878906,-32.400001525878906 -78.9000015258789,-31.600000381469727 c-80.30000305175781,0 -147.39999389648438,73.80000305175781 -147.39999389648438,164.39999389648438 s66.0999984741211,164.5 147.39999389648438,164.5 c30,0.8999999761581421 59,-10.600000381469727 80.30000305175781,-31.899999618530273 c4.800000190734863,16.299999237060547 21.899999618530273,25.600000381469727 38.20000076293945,20.799999237060547 c12.300000190734863,-3.5999999046325684 21.100000381469727,-14.399999618530273 21.899999618530273,-27.299999237060547 L1129.800048828125,45.69999694824219 L1129.800048828125,45.69999694824219 zM989.199951171875,420.0999755859375 c-47.29999923706055,0 -85.80000305175781,-46 -85.80000305175781,-102.9000015258789 s38.20000076293945,-102.9000015258789 85.80000305175781,-102.9000015258789 c47.599998474121094,0 85.80000305175781,46 85.80000305175781,102.9000015258789 s-38.20000076293945,102.4000015258789 -85.5999984741211,102.4000015258789 L989.199951171875,420.0999755859375 z" id="svg_10"/>
	<path d="M1423.699951171875,442.79998779296875 V214 h26.700000762939453 c14.800000190734863,0.8999999761581421 27.399999618530273,-10.399999618530273 28.299999237060547,-25.100000381469727 c0,-0.5 0.10000000149011612,-1.100000023841858 0.10000000149011612,-1.7000000476837158 c1.2999999523162842,-14.699999809265137 -9.600000381469727,-27.700000762939453 -24.200000762939453,-29 c-0.800000011920929,-0.10000000149011612 -1.7000000476837158,-0.10000000149011612 -2.5,-0.10000000149011612 h-28.299999237060547 v-42.5 c0.20000000298023224,-16.5 -12.399999618530273,-30.399999618530273 -28.899999618530273,-31.899999618530273 c-16.899999618530273,-1.2000000476837158 -31.600000381469727,11.600000381469727 -32.79999923706055,28.5 c-0.10000000149011612,0.699999988079071 -0.10000000149011612,1.5 -0.10000000149011612,2.200000047683716 v44.400001525878906 h-26.799999237060547 c-14.800000190734863,-0.8999999761581421 -27.399999618530273,10.399999618530273 -28.299999237060547,25.100000381469727 c0,0.5 -0.10000000149011612,1.100000023841858 -0.10000000149011612,1.7000000476837158 c-1.2999999523162842,14.699999809265137 9.600000381469727,27.700000762939453 24.200000762939453,29 c0.800000011920929,0.10000000149011612 1.7000000476837158,0.10000000149011612 2.5,0.10000000149011612 h26.700000762939453 v228.1999969482422 c0,17 13.800000190734863,30.799999237060547 30.799999237060547,30.799999237060547 l0,0 l0,0 c17,1.100000023841858 31.5,-11.899999618530273 32.599998474121094,-28.899999618530273 C1423.699951171875,444.20001220703125 1423.699951171875,443.5 1423.699951171875,442.79998779296875 z" id="svg_11"/>
</g></g></svg>